<?xml version="1.0" encoding="UTF-8" standalone="no"?>
<svg
   data-name="Layer 1"
   viewBox="0 0 100 80"
   x="0px"
   y="0px"
   version="1.1"
   id="svg21"
   sodipodi:docname="noun-saone-et-loire-department-map-5144602.svg"
   inkscape:version="1.1.1 (c3084ef, 2021-09-22)"
   width="100"
   height="80"
   xmlns:inkscape="http://www.inkscape.org/namespaces/inkscape"
   xmlns:sodipodi="http://sodipodi.sourceforge.net/DTD/sodipodi-0.dtd"
   xmlns="http://www.w3.org/2000/svg"
   xmlns:svg="http://www.w3.org/2000/svg"
   xmlns:rdf="http://www.w3.org/1999/02/22-rdf-syntax-ns#"
   xmlns:cc="http://creativecommons.org/ns#"
   xmlns:dc="http://purl.org/dc/elements/1.1/">
  <defs
     id="defs25" />
  <sodipodi:namedview
     id="namedview23"
     pagecolor="#ffffff"
     bordercolor="#666666"
     borderopacity="1.0"
     inkscape:pageshadow="2"
     inkscape:pageopacity="0.0"
     inkscape:pagecheckerboard="0"
     showgrid="false"
     inkscape:zoom="4.74"
     inkscape:cx="49.472574"
     inkscape:cy="66.561181"
     inkscape:window-width="1470"
     inkscape:window-height="891"
     inkscape:window-x="0"
     inkscape:window-y="37"
     inkscape:window-maximized="1"
     inkscape:current-layer="svg21" />
  <title
     id="title9">maps6</title>
  <path
     d="m 95.345358,21.457806 a 1,1 0 0 0 -0.65,-0.25 h -2.1 l -1.6,-3.58 a 1,1 0 0 0 -0.28,-0.36 l -3.85,-3.19 a 1,1 0 0 0 -0.84,-0.21 l -7.25,1.55 -1.83,-1.37 a 1,1 0 0 0 -0.84,-0.17 l -8.34,2 -10,3.46 -1.13,-2 a 0.82,0.82 0 0 0 -0.2,-0.25 l -6,-5.49 a 0.8,0.8 0 0 0 -0.27,-0.18 l -5.39,-2.4 -1.49,-2.48 a 1,1 0 0 0 -0.45,-0.4 l -6.99,-3.18 -2.66,-1.9200001 a 1,1 0 0 0 -1.33,0.14 l -2.38,2.6700001 -4,-0.68 a 1,1 0 0 0 -1,0.45 l -1.76,2.75 a 1,1 0 0 0 0,1 l 1.33,2.59 -3.11,4 a 1,1 0 0 0 0.05,1.29 l 2.12,2.32 -0.29,3.18 a 1,1 0 0 0 0.23,0.74 l 2.2,2.6 -1.82,1 a 1,1 0 0 0 -0.48,1.08 l 0.81,3.69 -11.91,4.91 -2.9299993,-2.93 a 1,1 0 0 0 -0.81,-0.29 l -6.38,0.66 a 1,1 0 0 0 -0.77000005,0.52 1,1 0 0 0 0,0.93 l 5.00000005,9.68 1.51,6.14 a 1,1 0 0 0 0.62,0.7 l 3.9499993,1.46 1.92,2.12 a 1,1 0 0 0 1,0.3 l 2.46,-0.66 2.83,1.61 -1,4 a 1,1 0 0 0 0,0.56 l 1.51,4.62 -5.36,3.22 a 1,1 0 0 0 -0.44,1.17 l 0.77,2.3 -1,2.52 a 1,1 0 0 0 0.74,1.34 l 3.33,0.67 0.89,2 a 1,1 0 0 0 0.92,0.6 h 1.89 a 1,1 0 0 0 0.46,-0.11 l 5,-2.62 7,3.61 a 1,1 0 0 0 0.45,0.11 1.07,1.07 0 0 0 0.43,-0.09 l 6.86,-3.15 a 1,1 0 0 0 0.6,-0.8 l 0.89,-6.19 3.37,1.76 a 1.08,1.08 0 0 0 0.5,0.12 l 5.61,-0.22 a 1,1 0 0 0 0.76,-0.41 l 1.5,-2.06 1.49,0.15 -0.31,2.28 a 1,1 0 0 0 0.19,0.73 l 1.34,1.84 v 3.19 a 1,1 0 0 0 0.65,0.94 l 3.18,1.2 a 1,1 0 0 0 0.8,0 1,1 0 0 0 0.52,-0.61 l 7.61,-25.22 2.3,-0.31 3.65,2.33 a 0.94,0.94 0 0 0 0.89,0.09 l 5.4,-2.08 1.14,2.47 a 1,1 0 0 0 0.51,0.5 l 4.28,1.87 a 1,1 0 0 0 0.76,0 l 5.82,-2.2 a 1,1 0 0 0 0.62,-0.71 l 0.66,-2.74 a 1,1 0 0 0 -0.54,-1.14 l -2.82,-1.36 0.08,-2.3 3.94,-4.56 a 1,1 0 0 0 0.14,-1.11 l -3.45,-6.8 c 0.88,-3.28 0.63,-3.64 0.42,-4 a 16.78,16.78 0 0 0 -2.12,-2.06 l 6,-1.7 a 1,1 0 0 0 0.7,-0.75 1,1 0 0 0 -0.32,-1 z m -4.55,5.5 a 1,1 0 0 0 -0.7,0.74 1,1 0 0 0 0.31,1 c 1.19,1.07 2.52,2.29 3,2.74 a 28,28 0 0 1 -0.64,2.84 0.94,0.94 0 0 0 0.07,0.72 l 3.32,6.55 -3.74,4.33 a 1,1 0 0 0 -0.24,0.62 l -0.11,3.29 a 1,1 0 0 0 0.56,0.94 l 2.67,1.23 -0.35,1.45 -5,1.87 -3.52,-1.52 -1.38,-3 a 1,1 0 0 0 -1.26,-0.51 l -5.79,2.28 -3.53,-2.26 a 1,1 0 0 0 -0.67,-0.15 l -3.3,0.44 a 1,1 0 0 0 -0.83,0.7 l -7.49,24.8 -1.54,-0.58 v -2.83 a 1,1 0 0 0 -0.19,-0.59 l -1.3,-1.76 0.38,-2.9 a 1,1 0 0 0 -0.2,-0.75 1,1 0 0 0 -0.68,-0.37 l -3.08,-0.32 a 1,1 0 0 0 -0.91,0.39 l -1.58,2.15 -4.86,0.19 -4.38,-2.3 a 1,1 0 0 0 -0.92,0 1,1 0 0 0 -0.53,0.75 l -1,7 -5.9,2.82 -7,-3.62 a 1,1 0 0 0 -0.46,-0.11 1.07,1.07 0 0 0 -0.46,0.11 l -5.27,2.71 h -1 l -0.83,-1.93 a 1,1 0 0 0 -0.72,-0.58 l -2.71,-0.58 0.68,-1.75 a 1,1 0 0 0 0,-0.67 l -0.63,-1.88 5.36,-3.21 a 1,1 0 0 0 0.44,-1.17 l -1.67,-5.11 1.14,-4.44 a 1,1 0 0 0 -0.48,-1.12 l -3.83,-2.15 a 1,1 0 0 0 -0.76,-0.1 l -2.27,0.6 -1.67,-1.86 a 1,1 0 0 0 -0.4,-0.26 l -3.6499993,-1.35 -1.41,-5.75 a 1,1 0 0 0 -0.08,-0.22 l -4.41,-8.48 4.44,-0.45 3.0699993,3.07 a 1,1 0 0 0 1.09,0.21 l 13.3,-5.49 a 1,1 0 0 0 0.59,-1.14 l -0.83,-3.79 2.24,-1.28 a 1,1 0 0 0 0.49,-0.7 1,1 0 0 0 -0.22,-0.81 l -2.7,-3.2 0.29,-3.21 a 1,1 0 0 0 -0.26,-0.77 l -1.84,-2 3,-3.84 a 1,1 0 0 0 0.1,-1.09 l -1.41,-2.59 1.09,-1.69 3.85,0.65 a 1,1 0 0 0 0.92,-0.32 l 2.14,-2.4 2,1.45 a 0.52,0.52 0 0 0 0.18,0.1 l 6.85,3.06 1.52,2.5 a 1,1 0 0 0 0.45,0.4 l 5.55,2.46 5.73,5.27 1.46,2.61 a 1,1 0 0 0 1.2,0.46 l 10.61,-3.71 7.82,-1.84 1.82,1.37 a 1,1 0 0 0 0.81,0.17 l 7.22,-1.54 3.33,2.7 1.78,4 a 1,1 0 0 0 0.91,0.59 h 2.31 l 2.38,2.07 z"
     id="path11"
     style="font-variation-settings:normal;opacity:1;vector-effect:none;fill:#000000;fill-opacity:1;stroke-width:1;stroke-linecap:butt;stroke-linejoin:miter;stroke-miterlimit:4;stroke-dasharray:none;stroke-dashoffset:0;stroke-opacity:1;-inkscape-stroke:none;stop-color:#000000;stop-opacity:1" />
  <path
     d="m 37.025358,7.407806 -1.73,-0.76 a 1.0006248,1.0006248 0 0 0 -0.81,1.83 l 1.69,0.75 a 1,1 0 0 0 0.4,0.09 1,1 0 0 0 0.41,-1.91 z"
     id="path13" />
  <path
     d="m 48.495358,14.587806 a 0.8,0.8 0 0 0 -0.27,-0.18 l -5.39,-2.4 -1.49,-2.48 a 1.06,1.06 0 0 0 -0.44,-0.4 l -0.88,-0.39 a 1.0006248,1.0006248 0 0 0 -0.81,1.83 l 0.58,0.26 1.5,2.48 a 1,1 0 0 0 0.45,0.4 l 5.55,2.46 4.26,3.92 a 1,1 0 0 0 0.68,0.26 1,1 0 0 0 0.73,-0.32 1,1 0 0 0 -0.06,-1.41 z"
     id="path15" />
  <metadata
     id="metadata320">
    <rdf:RDF>
      <cc:Work
         rdf:about="">
        <dc:title>maps6</dc:title>
      </cc:Work>
    </rdf:RDF>
  </metadata>
</svg>
